<?xml version="1.0" encoding="utf-8"?>
<!-- Generator: Adobe Illustrator 16.0.4, SVG Export Plug-In . SVG Version: 6.00 Build 0)  -->
<!DOCTYPE svg PUBLIC "-//W3C//DTD SVG 1.1//EN" "http://www.w3.org/Graphics/SVG/1.1/DTD/svg11.dtd">
<svg version="1.1" xmlns="http://www.w3.org/2000/svg" xmlns:xlink="http://www.w3.org/1999/xlink" x="0px" y="0px"
	 width="710.22px" height="34.79px" viewBox="0 0 710.22 34.79" enable-background="new 0 0 710.22 34.79" xml:space="preserve">
<g id="Layer_1">
	<g>
		<path fill="#F2F2F2" d="M0,14.898v-0.078C0,7.06,5.811,0.702,14.08,0.702c5.031,0,8.073,1.755,10.686,4.251l-3.081,3.549
			c-2.184-2.028-4.524-3.393-7.644-3.393c-5.188,0-9.01,4.29-9.01,9.633v0.078c0,5.343,3.783,9.672,9.01,9.672
			c3.354,0,5.499-1.326,7.839-3.51l3.082,3.12c-2.847,2.964-5.967,4.836-11.077,4.836C5.928,28.939,0,22.738,0,14.898z"/>
		<path fill="#F2F2F2" d="M27.924,18.292v-0.078c0-5.889,4.68-10.765,10.999-10.765s10.959,4.797,10.959,10.687v0.078
			c0,5.85-4.68,10.726-11.038,10.726C32.565,28.939,27.924,24.142,27.924,18.292z M45.163,18.292v-0.078
			c0-3.627-2.613-6.63-6.318-6.63c-3.783,0-6.201,2.964-6.201,6.552v0.078c0,3.588,2.613,6.591,6.279,6.591
			C42.745,24.805,45.163,21.841,45.163,18.292z"/>
		<path fill="#F2F2F2" d="M54.677,7.878h4.719v3.159c1.326-1.911,3.237-3.588,6.436-3.588c4.641,0,7.332,3.12,7.332,7.878v13.144
			h-4.719V16.771c0-3.198-1.599-5.031-4.407-5.031c-2.73,0-4.641,1.911-4.641,5.109v11.623h-4.719V7.878z"/>
		<path fill="#F2F2F2" d="M78.858,7.878h4.719v3.159c1.326-1.911,3.237-3.588,6.436-3.588c4.641,0,7.332,3.12,7.332,7.878v13.144
			h-4.719V16.771c0-3.198-1.599-5.031-4.407-5.031c-2.73,0-4.642,1.911-4.642,5.109v11.623h-4.719V7.878z"/>
		<path fill="#F2F2F2" d="M101.906,18.253v-0.078c0-5.889,4.173-10.726,10.062-10.726c6.552,0,9.867,5.148,9.867,11.077
			c0,0.429-0.039,0.858-0.078,1.326h-15.133c0.507,3.354,2.886,5.226,5.928,5.226c2.301,0,3.939-0.858,5.577-2.457l2.769,2.457
			c-1.95,2.34-4.641,3.861-8.424,3.861C106.508,28.939,101.906,24.61,101.906,18.253z M117.156,16.732
			c-0.312-3.042-2.106-5.421-5.226-5.421c-2.886,0-4.914,2.223-5.343,5.421H117.156z"/>
		<path fill="#F2F2F2" d="M125.462,18.292v-0.078c0-5.85,4.524-10.765,10.726-10.765c3.861,0,6.279,1.443,8.229,3.549l-2.964,3.159
			c-1.443-1.521-2.964-2.574-5.304-2.574c-3.432,0-5.967,2.964-5.967,6.552v0.078c0,3.666,2.535,6.591,6.162,6.591
			c2.223,0,3.861-1.014,5.343-2.535l2.847,2.808c-2.028,2.262-4.407,3.861-8.424,3.861
			C129.986,28.939,125.462,24.142,125.462,18.292z"/>
		<path fill="#F2F2F2" d="M149.836,22.777V11.935h-2.613V7.878h2.613V2.223h4.719v5.655h5.539v4.056h-5.539v10.102
			c0,1.833,0.936,2.574,2.535,2.574c1.053,0,1.989-0.234,2.925-0.702v3.861c-1.17,0.663-2.457,1.053-4.251,1.053
			C152.293,28.822,149.836,27.301,149.836,22.777z"/>
		<path fill="#F2F2F2" d="M163.174,18.253v-0.078c0-5.889,4.173-10.726,10.062-10.726c6.552,0,9.867,5.148,9.867,11.077
			c0,0.429-0.039,0.858-0.078,1.326h-15.132c0.507,3.354,2.886,5.226,5.928,5.226c2.301,0,3.939-0.858,5.577-2.457l2.769,2.457
			c-1.95,2.34-4.641,3.861-8.424,3.861C167.776,28.939,163.174,24.61,163.174,18.253z M178.424,16.732
			c-0.312-3.042-2.106-5.421-5.226-5.421c-2.886,0-4.914,2.223-5.343,5.421H178.424z"/>
		<path fill="#F2F2F2" d="M186.808,18.214v-0.078c0-6.825,4.641-10.687,9.555-10.687c3.393,0,5.539,1.677,7.021,3.627V0h4.719
			v28.471h-4.719v-3.432c-1.521,2.145-3.667,3.861-7.021,3.861C191.527,28.9,186.808,25.039,186.808,18.214z M203.461,18.214v-0.078
			c0-3.978-2.808-6.591-5.967-6.591c-3.237,0-5.928,2.496-5.928,6.591v0.078c0,3.978,2.73,6.591,5.928,6.591
			C200.654,24.805,203.461,22.153,203.461,18.214z"/>
		<path fill="#F2F2F2" d="M234.31,17.707L223.467,1.17h5.694l7.605,12.052l7.722-12.052h5.5l-10.842,16.42v10.881h-4.836V17.707z"/>
		<path fill="#F2F2F2" d="M248.232,18.292v-0.078c0-5.889,4.68-10.765,10.999-10.765s10.959,4.797,10.959,10.687v0.078
			c0,5.85-4.68,10.726-11.038,10.726C252.874,28.939,248.232,24.142,248.232,18.292z M265.471,18.292v-0.078
			c0-3.627-2.613-6.63-6.318-6.63c-3.783,0-6.201,2.964-6.201,6.552v0.078c0,3.588,2.613,6.591,6.279,6.591
			C263.053,24.805,265.471,21.841,265.471,18.292z"/>
		<path fill="#F2F2F2" d="M274.752,20.983V7.878h4.719v11.701c0,3.198,1.599,4.992,4.407,4.992c2.73,0,4.641-1.872,4.641-5.07V7.878
			h4.758v20.593h-4.758v-3.198c-1.326,1.95-3.237,3.627-6.435,3.627C277.443,28.9,274.752,25.78,274.752,20.983z"/>
		<path fill="#F2F2F2" d="M300.141,22.777V11.935h-2.613V7.878h2.613V2.223h4.719v5.655h5.539v4.056h-5.539v10.102
			c0,1.833,0.936,2.574,2.535,2.574c1.053,0,1.989-0.234,2.925-0.702v3.861c-1.17,0.663-2.457,1.053-4.251,1.053
			C302.598,28.822,300.141,27.301,300.141,22.777z"/>
		<path fill="#F2F2F2" d="M315.195,0h4.72v11.038c1.326-1.911,3.237-3.588,6.435-3.588c4.642,0,7.333,3.12,7.333,7.878v13.144h-4.72
			V16.771c0-3.198-1.599-5.031-4.407-5.031c-2.729,0-4.641,1.911-4.641,5.109v11.623h-4.72V0z"/>
		<path fill="#F2F2F2" d="M350.099,22.699v-0.078c0-4.134,3.549-6.475,8.697-6.475c2.769,0,4.68,0.351,6.591,0.858v-0.858
			c0-4.017-2.457-6.084-6.552-6.084c-2.418,0-4.407,0.663-6.24,1.599l-0.702-1.677c2.184-1.014,4.329-1.716,7.06-1.716
			c2.69,0,4.836,0.741,6.279,2.184c1.325,1.326,2.027,3.159,2.027,5.616v12.402h-1.872v-3.315c-1.364,1.911-3.822,3.783-7.604,3.783
			C354.077,28.939,350.099,26.833,350.099,22.699z M365.426,21.022V18.76c-1.677-0.429-3.899-0.897-6.747-0.897
			c-4.212,0-6.552,1.872-6.552,4.641v0.078c0,2.886,2.729,4.563,5.771,4.563C361.956,27.145,365.426,24.649,365.426,21.022z"/>
		<path fill="#F2F2F2" d="M374.123,8.581h1.911v3.705c1.326-2.34,3.549-4.173,7.177-4.173c5.031,0,7.956,3.432,7.956,8.19v12.168
			h-1.911V16.654c0-4.095-2.301-6.786-6.318-6.786c-3.9,0-6.903,2.964-6.903,7.098v11.505h-1.911V8.581z"/>
		<path fill="#F2F2F2" d="M396.743,18.604v-0.078c0-6.474,4.875-10.414,9.673-10.414c3.978,0,6.552,2.262,8.19,4.758V0h1.911v28.471
			h-1.911v-4.446c-1.717,2.613-4.252,4.915-8.19,4.915C401.618,28.939,396.743,25.078,396.743,18.604z M414.722,18.565v-0.078
			c0-5.109-3.978-8.542-8.112-8.542c-4.329,0-7.8,3.159-7.8,8.502v0.078c0,5.226,3.627,8.58,7.8,8.58
			C410.745,27.106,414.722,23.635,414.722,18.565z"/>
		<path fill="#F2F2F2" d="M435.898,1.17h9.087c8.58,0,14.509,5.89,14.509,13.573v0.078c0,7.683-5.929,13.65-14.509,13.65h-9.087
			V1.17z M437.925,3.042v23.557h7.06c7.605,0,12.402-5.187,12.402-11.701v-0.078c0-6.474-4.797-11.779-12.402-11.779H437.925z"/>
		<path fill="#F2F2F2" d="M466.005,0.78h2.379v2.613h-2.379V0.78z M466.24,8.581h1.911v19.891h-1.911V8.581z"/>
		<path fill="#F2F2F2" d="M475.288,31.747l1.131-1.56c2.379,1.833,5.109,2.808,8.034,2.808c4.563,0,7.801-2.613,7.801-7.722v-2.886
			c-1.717,2.458-4.368,4.603-8.308,4.603c-4.797,0-9.556-3.666-9.556-9.36v-0.078c0-5.733,4.759-9.438,9.556-9.438
			c3.979,0,6.669,2.106,8.308,4.446V8.581h1.911v16.81c0,2.886-0.937,5.148-2.535,6.747c-1.717,1.716-4.29,2.652-7.216,2.652
			C481.099,34.79,478.017,33.775,475.288,31.747z M492.37,17.59v-0.078c0-4.602-4.095-7.566-8.229-7.566
			c-4.174,0-7.684,2.886-7.684,7.527v0.078c0,4.485,3.588,7.605,7.684,7.605C488.275,25.156,492.37,22.114,492.37,17.59z"/>
		<path fill="#F2F2F2" d="M501.456,0.78h2.379v2.613h-2.379V0.78z M501.69,8.581h1.911v19.891h-1.911V8.581z"/>
		<path fill="#F2F2F2" d="M512.181,23.362V10.335h-2.887V8.581h2.887V2.223h1.91v6.357h6.981v1.755h-6.981v12.832
			c0,2.847,1.678,3.861,3.979,3.861c0.975,0,1.794-0.195,2.925-0.702v1.794c-1.014,0.468-1.988,0.702-3.236,0.702
			C514.677,28.822,512.181,27.145,512.181,23.362z"/>
		<path fill="#F2F2F2" d="M525.089,22.699v-0.078c0-4.134,3.549-6.475,8.697-6.475c2.769,0,4.68,0.351,6.591,0.858v-0.858
			c0-4.017-2.457-6.084-6.552-6.084c-2.418,0-4.407,0.663-6.24,1.599l-0.702-1.677c2.184-1.014,4.329-1.716,7.06-1.716
			c2.69,0,4.836,0.741,6.279,2.184c1.325,1.326,2.027,3.159,2.027,5.616v12.402h-1.872v-3.315c-1.364,1.911-3.822,3.783-7.604,3.783
			C529.067,28.939,525.089,26.833,525.089,22.699z M540.417,21.022V18.76c-1.677-0.429-3.899-0.897-6.747-0.897
			c-4.212,0-6.552,1.872-6.552,4.641v0.078c0,2.886,2.729,4.563,5.771,4.563C536.946,27.145,540.417,24.649,540.417,21.022z"/>
		<path fill="#F2F2F2" d="M549.386,0h1.911v28.471h-1.911V0z"/>
		<path fill="#F2F2F2" d="M570.953,1.17h19.228v1.872h-17.2v11.194h15.445v1.872H572.98v12.363h-2.027V1.17z"/>
		<path fill="#F2F2F2" d="M595.717,20.749V8.581h1.911v11.817c0,4.095,2.301,6.786,6.318,6.786c3.899,0,6.903-2.964,6.903-7.098
			V8.581h1.911v19.891h-1.911v-3.705c-1.326,2.34-3.55,4.173-7.177,4.173C598.642,28.939,595.717,25.507,595.717,20.749z"/>
		<path fill="#F2F2F2" d="M621.066,23.362V10.335h-2.886V8.581h2.886V2.223h1.911v6.357h6.981v1.755h-6.981v12.832
			c0,2.847,1.678,3.861,3.979,3.861c0.976,0,1.794-0.195,2.925-0.702v1.794c-1.014,0.468-1.988,0.702-3.236,0.702
			C623.562,28.822,621.066,27.145,621.066,23.362z"/>
		<path fill="#F2F2F2" d="M635.223,20.749V8.581h1.911v11.817c0,4.095,2.301,6.786,6.318,6.786c3.899,0,6.903-2.964,6.903-7.098
			V8.581h1.911v19.891h-1.911v-3.705c-1.326,2.34-3.55,4.173-7.177,4.173C638.148,28.939,635.223,25.507,635.223,20.749z"/>
		<path fill="#F2F2F2" d="M659.52,8.581h1.911v5.655c1.561-3.549,4.875-6.124,8.814-5.967v2.106h-0.195
			c-4.602,0-8.619,3.471-8.619,9.945v8.151h-1.911V8.581z"/>
		<path fill="#F2F2F2" d="M672.78,18.565v-0.078c0-5.772,4.057-10.375,9.438-10.375c5.577,0,9.127,4.524,9.127,10.414
			c0,0.351,0,0.468-0.039,0.78h-16.498c0.352,4.953,3.9,7.839,7.801,7.839c3.081,0,5.187-1.365,6.825-3.12l1.326,1.17
			c-2.028,2.184-4.407,3.744-8.229,3.744C677.304,28.939,672.78,24.766,672.78,18.565z M689.278,17.59
			c-0.273-4.017-2.574-7.722-7.138-7.722c-3.938,0-6.98,3.315-7.332,7.722H689.278z"/>
		<path fill="#F2F2F2" d="M695.205,25.975l1.131-1.521c2.185,1.677,4.603,2.613,7.138,2.613c2.69,0,4.797-1.482,4.797-3.783v-0.078
			c0-2.34-2.496-3.198-5.266-3.978c-3.236-0.936-6.825-1.911-6.825-5.46v-0.078c0-3.198,2.691-5.499,6.553-5.499
			c2.379,0,5.07,0.858,7.06,2.184l-1.015,1.599c-1.833-1.209-4.017-1.989-6.123-1.989c-2.73,0-4.524,1.482-4.524,3.471v0.078
			c0,2.223,2.691,3.042,5.538,3.861c3.198,0.897,6.553,2.067,6.553,5.578v0.078c0,3.549-3.042,5.812-6.864,5.812
			C700.47,28.861,697.311,27.691,695.205,25.975z"/>
	</g>
</g>
<g id="Layer_2">
	<g>
	</g>
	<g>
	</g>
	<g>
	</g>
	<g>
	</g>
	<g>
	</g>
</g>
</svg>
