<?xml version="1.0" encoding="utf-8"?>
<!-- Generator: Adobe Illustrator 16.0.4, SVG Export Plug-In . SVG Version: 6.00 Build 0)  -->
<!DOCTYPE svg PUBLIC "-//W3C//DTD SVG 1.1//EN" "http://www.w3.org/Graphics/SVG/1.1/DTD/svg11.dtd">
<svg version="1.1" id="Layer_1" xmlns="http://www.w3.org/2000/svg" xmlns:xlink="http://www.w3.org/1999/xlink" x="0px" y="0px"
	 width="815.752px" height="26.061px" viewBox="0 1.761 815.752 26.061" enable-background="new 0 1.761 815.752 26.061"
	 xml:space="preserve">
<path fill="#FFFFFF" d="M0,14.863v-0.072c0-7.163,5.364-13.03,12.995-13.03c4.644,0,7.451,1.62,9.863,3.924L20.014,8.96
	c-2.016-1.872-4.175-3.132-7.055-3.132c-4.787,0-8.315,3.96-8.315,8.891v0.072c0,4.931,3.492,8.927,8.315,8.927
	c3.096,0,5.075-1.225,7.235-3.24l2.843,2.88c-2.627,2.735-5.507,4.464-10.223,4.464C5.472,27.822,0,22.098,0,14.863z"/>
<path fill="#FFFFFF" d="M25.849,14.863v-0.072c0-7.091,5.472-13.03,13.21-13.03c7.739,0,13.139,5.867,13.139,12.958v0.072
	c0,7.091-5.472,13.031-13.21,13.031C31.248,27.822,25.849,21.954,25.849,14.863z M47.554,14.863v-0.072
	c0-4.895-3.563-8.963-8.567-8.963s-8.495,3.996-8.495,8.891v0.072c0,4.895,3.563,8.927,8.567,8.927S47.554,19.758,47.554,14.863z"/>
<path fill="#FFFFFF" d="M57.564,2.193h4.104l13.498,17.422V2.193h4.355v25.196h-3.708L61.92,9.464v17.925h-4.355V2.193z"/>
<path fill="#FFFFFF" d="M86.004,2.193h4.104l13.498,17.422V2.193h4.355v25.196h-3.708L90.36,9.464v17.925h-4.355V2.193z"/>
<path fill="#FFFFFF" d="M114.444,2.193h18.682v3.959h-14.254v6.551h12.634v3.959h-12.634v6.767h14.434v3.959h-18.861V2.193z"/>
<path fill="#FFFFFF" d="M137.448,14.863v-0.072c0-7.163,5.364-13.03,12.995-13.03c4.644,0,7.451,1.62,9.863,3.924l-2.844,3.275
	c-2.016-1.872-4.175-3.132-7.055-3.132c-4.787,0-8.315,3.96-8.315,8.891v0.072c0,4.931,3.492,8.927,8.315,8.927
	c3.096,0,5.075-1.225,7.235-3.24l2.843,2.88c-2.627,2.735-5.507,4.464-10.223,4.464C142.919,27.822,137.448,22.098,137.448,14.863z"
	/>
<path fill="#FFFFFF" d="M171.322,6.296h-7.991V2.193h20.445v4.104h-7.991v21.093h-4.463V6.296z"/>
<path fill="#FFFFFF" d="M188.459,2.193h18.682v3.959h-14.254v6.551h12.634v3.959h-12.634v6.767h14.434v3.959h-18.861V2.193z"/>
<path fill="#FFFFFF" d="M212.58,2.193h9.395c7.919,0,13.391,5.435,13.391,12.526v0.072c0,7.091-5.472,12.598-13.391,12.598h-9.395
	V2.193z M217.007,6.224v17.134h4.967c5.292,0,8.747-3.563,8.747-8.495v-0.072c0-4.931-3.456-8.567-8.747-8.567H217.007z"/>
<path fill="#FFFFFF" d="M258.946,17.455L248.939,2.193h5.255l7.019,11.123l7.127-11.123h5.076l-10.007,15.154v10.042h-4.463V17.455z
	"/>
<path fill="#FFFFFF" d="M273.029,14.863v-0.072c0-7.091,5.472-13.03,13.21-13.03c7.739,0,13.139,5.867,13.139,12.958v0.072
	c0,7.091-5.472,13.031-13.21,13.031C278.429,27.822,273.029,21.954,273.029,14.863z M294.735,14.863v-0.072
	c0-4.895-3.563-8.963-8.567-8.963s-8.495,3.996-8.495,8.891v0.072c0,4.895,3.563,8.927,8.567,8.927S294.735,19.758,294.735,14.863z"
	/>
<path fill="#FFFFFF" d="M304.349,16.699V2.193h4.427v14.326c0,4.679,2.412,7.163,6.371,7.163c3.924,0,6.335-2.34,6.335-6.983V2.193
	h4.428v14.29c0,7.522-4.247,11.303-10.834,11.303C308.524,27.786,304.349,24.005,304.349,16.699z"/>
<path fill="#FFFFFF" d="M338.188,6.296h-7.991V2.193h20.445v4.104h-7.99v21.093h-4.464V6.296z"/>
<path fill="#FFFFFF" d="M355.324,2.193h4.428v10.475h12.021V2.193h4.428v25.196h-4.428V16.771h-12.021v10.618h-4.428V2.193z"/>
<path fill="#FFFFFF" d="M403.563,2.013h1.799l11.734,25.376h-2.051l-3.203-7.055h-14.867l-3.203,7.055h-1.943L403.563,2.013z
	 M411.049,18.642l-6.623-14.578l-6.658,14.578H411.049z"/>
<path fill="#FFFFFF" d="M422.426,2.193h1.764l17.387,21.921V2.193h1.801v25.196h-1.404L424.227,5v22.389h-1.801V2.193z"/>
<path fill="#FFFFFF" d="M450.868,2.193h8.387c7.92,0,13.391,5.435,13.391,12.526v0.072c0,7.091-5.471,12.598-13.391,12.598h-8.387
	V2.193z M452.739,3.92v21.741h6.516c7.02,0,11.447-4.787,11.447-10.798v-0.072c0-5.975-4.428-10.871-11.447-10.871H452.739z"/>
<path fill="#FFFFFF" d="M489.819,2.193h8.387c7.92,0,13.391,5.435,13.391,12.526v0.072c0,7.091-5.471,12.598-13.391,12.598h-8.387
	V2.193z M491.69,3.92v21.741h6.516c7.02,0,11.447-4.787,11.447-10.798v-0.072c0-5.975-4.428-10.871-11.447-10.871H491.69z"/>
<path fill="#FFFFFF" d="M518.223,2.193h1.871v25.196h-1.871V2.193z"/>
<path fill="#FFFFFF" d="M526.719,14.863v-0.072c0-6.803,4.93-13.03,12.453-13.03c4.104,0,6.695,1.224,9.215,3.312l-1.223,1.404
	c-1.98-1.728-4.283-3.023-8.1-3.023c-6.119,0-10.402,5.184-10.402,11.267v0.072c0,6.515,4.066,11.375,10.799,11.375
	c3.203,0,6.191-1.332,8.027-2.88v-7.234h-8.424v-1.728h10.223v9.718c-2.268,2.016-5.795,3.78-9.898,3.78
	C531.434,27.822,526.719,21.954,526.719,14.863z"/>
<path fill="#FFFFFF" d="M556.309,2.193h1.873v25.196h-1.873V2.193z"/>
<path fill="#FFFFFF" d="M572.905,3.92h-8.783V2.193h19.438V3.92h-8.783v23.469h-1.871V3.92z"/>
<path fill="#FFFFFF" d="M595.112,2.013h1.799l11.734,25.376h-2.051l-3.203-7.055h-14.867l-3.203,7.055h-1.943L595.112,2.013z
	 M602.598,18.642l-6.623-14.578l-6.658,14.578H602.598z"/>
<path fill="#FFFFFF" d="M613.977,2.193h1.871v23.469h14.795v1.728h-16.666V2.193z"/>
<path fill="#FFFFFF" d="M647.059,2.193h17.746V3.92h-15.873v10.331h14.254v1.728h-14.254v11.41h-1.873V2.193z"/>
<path fill="#FFFFFF" d="M670.28,16.915V2.193h1.871v14.542c0,5.939,3.203,9.358,8.531,9.358c5.111,0,8.387-3.096,8.387-9.178V2.193
	h1.871v14.506c0,7.235-4.211,11.086-10.33,11.086C674.563,27.786,670.28,23.97,670.28,16.915z"/>
<path fill="#FFFFFF" d="M705.018,3.92h-8.783V2.193h19.438V3.92h-8.781v23.469h-1.873V3.92z"/>
<path fill="#FFFFFF" d="M720.967,16.915V2.193h1.871v14.542c0,5.939,3.203,9.358,8.531,9.358c5.111,0,8.387-3.096,8.387-9.178V2.193
	h1.871v14.506c0,7.235-4.211,11.086-10.33,11.086C725.25,27.786,720.967,23.97,720.967,16.915z"/>
<path fill="#FFFFFF" d="M748.723,2.193h10.582c3.096,0,5.58,0.972,7.092,2.483c1.188,1.188,1.908,2.88,1.908,4.68v0.072
	c0,4.211-3.133,6.624-7.379,7.199l8.314,10.762h-2.377l-8.025-10.438h-8.244v10.438h-1.871V2.193z M759.09,15.259
	c4.211,0,7.342-2.124,7.342-5.759V9.428c0-3.383-2.662-5.507-7.234-5.507h-8.604v11.339H759.09z"/>
<path fill="#FFFFFF" d="M774.75,2.193h17.926V3.92h-16.055v9.899h14.436v1.728h-14.436v10.114h16.234v1.728H774.75V2.193z"/>
<path fill="#FFFFFF" d="M797.25,23.718l1.225-1.404c2.771,2.556,5.326,3.743,9.035,3.743c3.779,0,6.371-2.123,6.371-5.003v-0.072
	c0-2.663-1.404-4.211-7.127-5.363c-6.049-1.224-8.496-3.275-8.496-7.091V8.456c0-3.744,3.42-6.623,8.1-6.623
	c3.672,0,6.082,1.008,8.639,3.06l-1.188,1.476c-2.377-2.052-4.752-2.844-7.523-2.844c-3.707,0-6.156,2.124-6.156,4.751v0.072
	c0,2.664,1.369,4.283,7.344,5.507c5.832,1.188,8.279,3.275,8.279,6.947v0.072c0,4.067-3.492,6.875-8.352,6.875
	C803.37,27.75,800.274,26.417,797.25,23.718z"/>
</svg>
